<?xml version="1.0" encoding="utf-8"?>
<!-- Generator: Adobe Illustrator 24.1.0, SVG Export Plug-In . SVG Version: 6.00 Build 0)  -->
<svg version="1.1" id="Capa_1" xmlns="http://www.w3.org/2000/svg" xmlns:xlink="http://www.w3.org/1999/xlink" x="0px" y="0px"
	 viewBox="0 0 357.6 357.6" style="enable-background:new 0 0 357.6 357.6;" xml:space="preserve">
<style type="text/css">
	.st0{fill:#F6C90E;}
</style>
<g>
	<path class="st0" d="M325.2,80.4c-2.3-3.4-4.7-6.6-7.1-9.8V287c2.5-3.2,4.9-6.5,7.1-9.8V80.4z"/>
	<path class="st0" d="M310.9,62c-2.3-2.6-4.7-5.2-7.1-7.6v248.9c2.5-2.5,4.8-5,7.1-7.6V62z"/>
	<path class="st0" d="M339.5,106c-2.2-4.8-4.6-9.5-7.1-14v173.7c2.6-4.5,5-9.2,7.1-14V106z"/>
	<path class="st0" d="M239.5,13.1c-2.4-0.9-4.8-1.7-7.3-2.5v336.3c2.4-0.8,4.9-1.6,7.3-2.5V13.1z"/>
	<path class="st0" d="M189.4,354.9c2.4-0.1,4.8-0.3,7.1-0.6V3.3c-2.4-0.2-4.7-0.4-7.1-0.6V354.9z"/>
	<path class="st0" d="M210.9,5.3c-2.2-0.4-4.4-0.8-6.5-1.1v349.1c2.2-0.3,4.4-0.7,6.5-1.1V5.3z"/>
	<path class="st0" d="M346.6,124.4v108.7c5.5-17.1,8.6-35.4,8.6-54.4C355.2,159.8,352.2,141.6,346.6,124.4z"/>
	<path class="st0" d="M282.4,36c-6.8-4.9-13.9-9.4-21.4-13.3v312.2c7.5-3.9,14.6-8.4,21.4-13.3V36z"/>
	<path class="st0" d="M18.1,251.6c2.2,4.8,4.6,9.5,7.1,14V92c-2.6,4.5-5,9.2-7.1,14V251.6z"/>
	<path class="st0" d="M11,124.4c-5.5,17.1-8.6,35.4-8.6,54.4s3,37.2,8.6,54.4V124.4z"/>
	<path class="st0" d="M53.8,54.3c-2.5,2.5-4.8,5-7.1,7.6v233.7c2.3,2.6,4.7,5.2,7.1,7.6V54.3z"/>
	<path class="st0" d="M182.3,2.4c-1.2,0-2.3,0-3.5,0c-1.2,0-2.4,0-3.6,0v352.7c1.2,0,2.4,0,3.6,0c1.2,0,2.3,0,3.5,0V2.4z"/>
	<path class="st0" d="M153.8,4.2c-7.3,1-14.4,2.5-21.4,4.4V349c7,1.9,14.1,3.4,21.4,4.4V4.2z"/>
	<path class="st0" d="M68.1,41.5c-2.4,2-4.8,4-7.1,6.1V310c2.3,2.1,4.7,4.1,7.1,6.1V41.5z"/>
	<path class="st0" d="M125.2,10.7c-2.4,0.8-4.8,1.6-7.1,2.4v331.3c2.4,0.9,4.7,1.7,7.1,2.4V10.7z"/>
	<path class="st0" d="M110.9,15.9c-7.4,3.1-14.6,6.7-21.4,10.7v304.3c6.9,4,14,7.6,21.4,10.7V15.9z"/>
</g>
</svg>
