<?xml version="1.0" encoding="utf-8"?>
<!-- Generator: Adobe Illustrator 24.1.0, SVG Export Plug-In . SVG Version: 6.00 Build 0)  -->
<svg version="1.1" id="Capa_1" xmlns="http://www.w3.org/2000/svg" xmlns:xlink="http://www.w3.org/1999/xlink" x="0px" y="0px"
	 viewBox="0 0 1000 90" style="enable-background:new 0 0 1000 90;" xml:space="preserve">
<g>
	<path d="M3.4,59.5h3.5c0.4,3.8,1.1,6.9,2.2,9.4c1.1,2.5,2.4,4.5,4.1,6c1.6,1.5,3.4,2.5,5.5,3.2c2.1,0.6,4.3,0.9,6.6,0.9
		c2.8,0,5.2-0.3,7.1-1s3.6-1.7,4.9-2.9c1.3-1.2,2.2-2.7,2.8-4.5c0.6-1.7,0.9-3.7,0.9-5.7c0-2.6-0.4-4.7-1.3-6.4
		c-0.9-1.7-2.1-3.1-3.6-4.3c-1.5-1.2-3.4-2.2-5.5-3.1c-2.2-0.9-4.5-1.8-7.1-2.7c-2.6-0.9-5-1.9-7.4-2.9c-2.3-1-4.4-2.3-6.2-3.8
		c-1.8-1.5-3.2-3.4-4.3-5.6c-1-2.2-1.6-4.9-1.6-8.2c0-3.1,0.5-5.9,1.5-8.5c1-2.6,2.5-4.7,4.4-6.5c2-1.8,4.4-3.2,7.3-4.2
		s6.3-1.5,10.1-1.5c1.5,0,3.1,0.1,4.7,0.2c1.6,0.1,3.2,0.4,4.8,0.7c1.6,0.3,3.2,0.7,4.7,1.1c1.6,0.4,3,0.9,4.4,1.4l0.6,18h-3.5
		c-0.3-3.6-1-6.5-2-8.8c-1-2.3-2.3-4-3.8-5.3c-1.5-1.3-3.1-2.2-4.9-2.6c-1.8-0.5-3.7-0.7-5.5-0.7c-2.5,0-4.7,0.3-6.6,0.9
		c-1.9,0.6-3.4,1.5-4.6,2.6c-1.2,1.1-2.1,2.5-2.8,4.2c-0.6,1.6-0.9,3.5-0.9,5.5c0,2.5,0.4,4.5,1.3,6.1c0.9,1.6,2.1,3,3.7,4.2
		c1.6,1.2,3.5,2.2,5.7,3.1c2.2,0.9,4.6,1.9,7.3,2.9c2.4,0.9,4.8,1.9,7.1,3c2.3,1,4.4,2.4,6.3,3.9c1.8,1.6,3.3,3.5,4.4,5.8
		c1.1,2.3,1.7,5.2,1.7,8.6c0,3.3-0.6,6.3-1.7,8.9c-1.1,2.6-2.8,4.8-4.9,6.5c-2.1,1.8-4.7,3.1-7.8,4s-6.6,1.4-10.4,1.4
		c-1.7,0-3.4-0.1-5.2-0.2c-1.8-0.2-3.6-0.4-5.4-0.7c-1.8-0.3-3.5-0.7-5.2-1.1c-1.7-0.4-3.3-0.9-4.7-1.5L3.4,59.5z"/>
	<path d="M98.5,67.6c-1.1,4.8-3.1,8.5-6.2,11c-3.1,2.6-7,3.8-11.9,3.8c-3.3,0-6.3-0.6-8.9-1.8c-2.6-1.2-4.8-2.8-6.7-4.8
		c-1.8-2-3.2-4.4-4.2-7.1c-1-2.7-1.4-5.6-1.4-8.6c0-3.1,0.5-6.1,1.5-8.9c1-2.8,2.4-5.2,4.3-7.3c1.8-2.1,4-3.7,6.6-4.9
		c2.6-1.2,5.4-1.8,8.6-1.8c2.9,0,5.5,0.5,7.9,1.5c2.3,1,4.3,2.5,5.9,4.3c1.6,1.8,2.9,4,3.8,6.6c0.9,2.6,1.4,5.4,1.4,8.4h-30
		c0,0.6,0,0.9,0,1.1c0,0.2,0,0.3,0,0.3c0,3.9,0.3,7.1,0.9,9.5c0.6,2.5,1.4,4.4,2.4,5.7c1,1.4,2.3,2.3,3.7,2.8c1.4,0.5,3,0.7,4.8,0.7
		c1.6,0,3.2-0.2,4.6-0.6c1.4-0.4,2.7-1.1,3.9-2.1c1.2-0.9,2.2-2.2,3.1-3.7c0.9-1.5,1.6-3.3,2.1-5.4c0.7,0.1,1.3,0.2,2,0.3
		C97.3,67.2,97.9,67.4,98.5,67.6z M89.1,54.4c-0.1-2.8-0.4-5-0.9-6.7c-0.5-1.7-1.1-3-1.9-4c-0.8-1-1.7-1.6-2.8-2
		c-1.1-0.3-2.3-0.5-3.6-0.5c-1.4,0-2.6,0.2-3.8,0.6c-1.2,0.4-2.2,1.1-3.2,2.1c-0.9,1-1.7,2.3-2.3,4s-1,3.8-1.3,6.5H89.1z"/>
	<path d="M119.8,81.1h-7V12.9h-7.5v-4h16.4v35.5h0.2c1.5-2.4,3.4-4.1,5.7-5.2c2.3-1.1,4.9-1.7,7.6-1.7c2.9,0,5.5,0.5,7.9,1.6
		c2.4,1.1,4.5,2.6,6.2,4.5c1.8,1.9,3.1,4.3,4.1,7c1,2.8,1.5,5.8,1.5,9.1c0,3.5-0.5,6.7-1.6,9.5c-1.1,2.8-2.5,5.2-4.4,7.2
		c-1.8,2-3.9,3.5-6.4,4.5c-2.4,1.1-5,1.6-7.7,1.6c-2.7,0-5.2-0.6-7.4-1.8c-2.3-1.2-4.2-3.1-5.6-5.6h-0.3L119.8,81.1z M145.2,59.8
		c0-3.8-0.3-6.9-0.8-9.3c-0.5-2.4-1.3-4.3-2.3-5.7c-1-1.4-2.1-2.3-3.5-2.8c-1.4-0.5-2.9-0.7-4.5-0.7c-2.3,0-4.2,0.4-5.7,1.3
		c-1.6,0.9-2.8,2.1-3.8,3.7c-1,1.6-1.7,3.5-2.1,5.7c-0.4,2.2-0.7,4.7-0.7,7.5c0,2.9,0.2,5.3,0.6,7.4c0.4,2.1,1,3.8,1.6,5.2
		c0.7,1.4,1.4,2.5,2.3,3.4c0.9,0.8,1.8,1.5,2.7,1.9c0.9,0.4,1.8,0.7,2.7,0.9c0.9,0.1,1.7,0.2,2.5,0.2c1.6,0,3.1-0.2,4.4-0.7
		c1.3-0.5,2.5-1.4,3.5-2.8c1-1.4,1.7-3.3,2.3-5.7C144.9,66.9,145.2,63.7,145.2,59.8z"/>
	<path d="M205.5,81.1c-1.4,0.3-2.7,0.4-3.9,0.5c-1.2,0.1-2.1,0.1-2.8,0.1c-1.8,0-3.2-0.1-4.4-0.4c-1.1-0.3-2-0.7-2.7-1.2
		c-0.7-0.5-1.1-1.2-1.4-1.9c-0.3-0.8-0.5-1.6-0.5-2.5h-0.2c-0.9,1.3-1.9,2.4-3,3.3c-1.1,0.9-2.2,1.6-3.3,2.1
		c-1.2,0.5-2.3,0.9-3.6,1.1c-1.2,0.2-2.4,0.3-3.7,0.3c-2,0-3.8-0.3-5.4-0.8c-1.6-0.5-2.9-1.3-4-2.3c-1.1-1-1.9-2.2-2.5-3.6
		c-0.6-1.4-0.8-2.9-0.8-4.5c0-4.6,2.3-8.1,6.8-10.5c4.5-2.4,11-3.7,19.6-3.9c0-1.5,0.1-2.8,0.1-4c0-1.2,0-2.4,0-3.5
		c0-3-0.6-5.1-1.9-6.3c-1.2-1.2-3.2-1.8-5.9-1.8c-1.8,0-3.4,0.2-4.8,0.6c-1.4,0.4-2.6,0.9-3.5,1.6c0.8,0.8,1.4,1.6,1.8,2.4
		c0.4,0.8,0.6,1.7,0.6,2.5c0,1.4-0.4,2.6-1.3,3.5c-0.9,0.9-2.1,1.4-3.7,1.4c-0.7,0-1.3-0.1-1.9-0.3c-0.6-0.2-1.2-0.5-1.6-0.9
		c-0.5-0.4-0.8-1-1.1-1.6c-0.3-0.6-0.4-1.4-0.4-2.3c0-1.4,0.4-2.7,1.1-4c0.7-1.3,1.9-2.4,3.3-3.4c1.5-1,3.3-1.8,5.5-2.4
		c2.2-0.6,4.8-0.9,7.7-0.9c2.4,0,4.5,0.2,6.3,0.7c1.8,0.5,3.4,1.2,4.7,2.3c1.3,1.1,2.2,2.5,2.9,4.3c0.6,1.8,1,4,1,6.7
		c0,0.7,0,1.7,0,3.3c0,1.5,0,3.2-0.1,5c0,1.8-0.1,3.7-0.1,5.5c0,1.9,0,3.5,0,4.9c0,1.5,0,2.7,0.1,3.7c0.1,1,0.2,1.8,0.5,2.3
		c0.3,0.6,0.7,1,1.2,1.2c0.5,0.2,1.3,0.4,2.2,0.4c0.8,0,1.9-0.1,3.3-0.3V81.1z M189.6,60.6c-3.6,0.1-6.5,0.4-8.8,0.8
		c-2.2,0.4-3.9,1.1-5.2,1.9c-1.2,0.8-2.1,1.8-2.5,3c-0.4,1.2-0.6,2.5-0.6,4c0,2.6,0.5,4.5,1.6,5.8c1.1,1.3,2.6,1.9,4.5,1.9
		c1,0,2.2-0.2,3.5-0.6c1.3-0.4,2.5-1.1,3.6-2.1c1.1-1,2.1-2.3,2.8-3.9c0.7-1.6,1.1-3.6,1.1-5.9V60.6z"/>
	<path d="M272.1,66.2h0.2l19.9-53.3h-9.9v-4H306v4H297l-25.9,69h-3.9l-24.3-69h-9.8v-4h30.6v4h-10.3L272.1,66.2z"/>
	<path d="M339.5,67.6c-1.1,4.8-3.1,8.5-6.2,11c-3.1,2.6-7,3.8-11.9,3.8c-3.3,0-6.3-0.6-8.9-1.8c-2.6-1.2-4.8-2.8-6.7-4.8
		c-1.8-2-3.2-4.4-4.2-7.1c-1-2.7-1.4-5.6-1.4-8.6c0-3.1,0.5-6.1,1.5-8.9c1-2.8,2.4-5.2,4.3-7.3c1.8-2.1,4-3.7,6.6-4.9
		c2.6-1.2,5.4-1.8,8.6-1.8c2.9,0,5.5,0.5,7.9,1.5c2.3,1,4.3,2.5,5.9,4.3c1.6,1.8,2.9,4,3.8,6.6c0.9,2.6,1.4,5.4,1.4,8.4h-30
		c0,0.6,0,0.9,0,1.1c0,0.2,0,0.3,0,0.3c0,3.9,0.3,7.1,0.9,9.5c0.6,2.5,1.4,4.4,2.4,5.7c1,1.4,2.3,2.3,3.7,2.8c1.4,0.5,3,0.7,4.8,0.7
		c1.6,0,3.2-0.2,4.6-0.6c1.4-0.4,2.7-1.1,3.9-2.1c1.2-0.9,2.2-2.2,3.1-3.7c0.9-1.5,1.6-3.3,2.1-5.4c0.7,0.1,1.3,0.2,2,0.3
		C338.3,67.2,339,67.4,339.5,67.6z M330.1,54.4c-0.1-2.8-0.4-5-0.9-6.7c-0.5-1.7-1.1-3-1.9-4c-0.8-1-1.7-1.6-2.8-2
		c-1.1-0.3-2.3-0.5-3.6-0.5c-1.4,0-2.6,0.2-3.8,0.6c-1.2,0.4-2.2,1.1-3.2,2.1c-0.9,1-1.7,2.3-2.3,4s-1,3.8-1.3,6.5H330.1z"/>
	<path d="M372.3,81.1h-24.4v-4h7.5V42.7h-7.5v-4h16.4v7.7h0.2c0.6-1.3,1.3-2.5,2.2-3.6c0.9-1.1,1.8-2,2.9-2.8
		c1.1-0.8,2.2-1.4,3.4-1.8c1.2-0.4,2.4-0.6,3.6-0.6c2,0,3.6,0.6,4.9,1.7c1.3,1.2,1.9,2.8,1.9,4.8c0,1.8-0.5,3.2-1.5,4.3
		c-1,1-2.3,1.5-3.9,1.5c-1.7,0-2.9-0.5-3.8-1.4c-0.9-1-1.3-2.2-1.3-3.6c0-0.8,0.1-1.6,0.4-2.5c-1.3,0.5-2.5,1.2-3.6,2.2
		c-1.1,1-2.1,2.3-2.9,3.8c-0.8,1.5-1.5,3.3-1.9,5.3c-0.5,2-0.7,4.2-0.7,6.7v16.8h8V81.1z"/>
	<path d="M429.8,81.1c-1.4,0.3-2.7,0.4-3.9,0.5c-1.2,0.1-2.1,0.1-2.8,0.1c-1.8,0-3.2-0.1-4.4-0.4c-1.1-0.3-2-0.7-2.7-1.2
		c-0.7-0.5-1.1-1.2-1.4-1.9c-0.3-0.8-0.5-1.6-0.5-2.5h-0.2c-0.9,1.3-1.9,2.4-3,3.3c-1.1,0.9-2.2,1.6-3.3,2.1
		c-1.2,0.5-2.3,0.9-3.6,1.1c-1.2,0.2-2.4,0.3-3.7,0.3c-2,0-3.8-0.3-5.4-0.8c-1.6-0.5-2.9-1.3-4-2.3c-1.1-1-1.9-2.2-2.5-3.6
		c-0.6-1.4-0.8-2.9-0.8-4.5c0-4.6,2.3-8.1,6.8-10.5c4.5-2.4,11-3.7,19.6-3.9c0-1.5,0.1-2.8,0.1-4c0-1.2,0-2.4,0-3.5
		c0-3-0.6-5.1-1.9-6.3c-1.2-1.2-3.2-1.8-5.9-1.8c-1.8,0-3.4,0.2-4.8,0.6c-1.4,0.4-2.6,0.9-3.5,1.6c0.8,0.8,1.4,1.6,1.8,2.4
		c0.4,0.8,0.6,1.7,0.6,2.5c0,1.4-0.4,2.6-1.3,3.5c-0.9,0.9-2.1,1.4-3.7,1.4c-0.7,0-1.3-0.1-1.9-0.3c-0.6-0.2-1.2-0.5-1.6-0.9
		c-0.5-0.4-0.8-1-1.1-1.6c-0.3-0.6-0.4-1.4-0.4-2.3c0-1.4,0.4-2.7,1.1-4c0.7-1.3,1.9-2.4,3.3-3.4c1.5-1,3.3-1.8,5.5-2.4
		s4.8-0.9,7.7-0.9c2.4,0,4.5,0.2,6.3,0.7c1.8,0.5,3.4,1.2,4.7,2.3c1.3,1.1,2.2,2.5,2.9,4.3c0.6,1.8,1,4,1,6.7c0,0.7,0,1.7,0,3.3
		c0,1.5,0,3.2-0.1,5c0,1.8-0.1,3.7-0.1,5.5c0,1.9,0,3.5,0,4.9c0,1.5,0,2.7,0.1,3.7c0.1,1,0.2,1.8,0.5,2.3c0.3,0.6,0.7,1,1.2,1.2
		c0.5,0.2,1.3,0.4,2.2,0.4c0.8,0,1.9-0.1,3.3-0.3V81.1z M413.8,60.6c-3.6,0.1-6.5,0.4-8.8,0.8c-2.2,0.4-3.9,1.1-5.2,1.9
		c-1.2,0.8-2.1,1.8-2.5,3c-0.4,1.2-0.6,2.5-0.6,4c0,2.6,0.5,4.5,1.6,5.8c1.1,1.3,2.6,1.9,4.5,1.9c1,0,2.2-0.2,3.5-0.6
		c1.3-0.4,2.5-1.1,3.6-2.1c1.1-1,2.1-2.3,2.8-3.9c0.7-1.6,1.1-3.6,1.1-5.9V60.6z"/>
	<path d="M509.9,44.1l-14.4,37.7h-3.8l-24.8-69h-9.8v-4h29v4h-8.9l19.2,53.3h0.2l11-28.6l-8.9-24.7h-8.4v-4h29v4H509l19.2,53.3h0.2
		l20.4-53.3h-9.9v-4h23.7v4h-8.9l-26.4,69h-3.8l-13.4-37.7H509.9z"/>
	<path d="M580,77.1h7.5v4h-23.9v-4h7.5V42.7h-7.5v-4H580V77.1z M575.5,24.7c-0.9,0-1.6-0.1-2.4-0.4c-0.7-0.3-1.3-0.7-1.9-1.2
		c-0.5-0.5-1-1.2-1.3-1.9c-0.3-0.7-0.4-1.5-0.4-2.4c0-0.9,0.2-1.7,0.5-2.4c0.3-0.7,0.7-1.4,1.3-1.9c0.5-0.5,1.2-0.9,1.9-1.2
		c0.7-0.3,1.5-0.4,2.3-0.4c0.8,0,1.6,0.1,2.3,0.4c0.7,0.3,1.4,0.7,1.9,1.2c0.5,0.5,1,1.2,1.3,1.9c0.3,0.7,0.4,1.5,0.4,2.4
		c0,0.9-0.2,1.7-0.5,2.4c-0.3,0.7-0.7,1.4-1.3,1.9c-0.5,0.5-1.2,0.9-1.9,1.2C577.1,24.6,576.3,24.7,575.5,24.7z"/>
	<path d="M633.4,67.6c-1.1,4.8-3.1,8.5-6.2,11c-3,2.6-7,3.8-11.9,3.8c-3.3,0-6.3-0.6-8.9-1.8c-2.6-1.2-4.8-2.8-6.7-4.8
		c-1.8-2-3.2-4.4-4.2-7.1c-1-2.7-1.4-5.6-1.4-8.6c0-3.1,0.5-6.1,1.5-8.9c1-2.8,2.4-5.2,4.3-7.3c1.8-2.1,4-3.7,6.6-4.9
		c2.6-1.2,5.4-1.8,8.6-1.8c2.9,0,5.5,0.5,7.9,1.5c2.3,1,4.3,2.5,5.9,4.3c1.6,1.8,2.9,4,3.8,6.6c0.9,2.6,1.4,5.4,1.4,8.4h-30
		c0,0.6-0.1,0.9-0.1,1.1c0,0.2,0,0.3,0,0.3c0,3.9,0.3,7.1,0.9,9.5c0.6,2.5,1.4,4.4,2.4,5.7c1,1.4,2.3,2.3,3.7,2.8
		c1.4,0.5,3,0.7,4.8,0.7c1.6,0,3.2-0.2,4.6-0.6c1.4-0.4,2.7-1.1,3.9-2.1c1.2-0.9,2.2-2.2,3.1-3.7c0.9-1.5,1.6-3.3,2.1-5.4
		c0.7,0.1,1.3,0.2,2,0.3C632.2,67.2,632.8,67.4,633.4,67.6z M624,54.4c-0.1-2.8-0.4-5-0.9-6.7c-0.5-1.7-1.1-3-1.9-4
		c-0.8-1-1.7-1.6-2.8-2c-1.1-0.3-2.3-0.5-3.6-0.5c-1.4,0-2.6,0.2-3.8,0.6c-1.2,0.4-2.2,1.1-3.2,2.1c-0.9,1-1.7,2.3-2.3,4
		c-0.6,1.7-1,3.8-1.3,6.5H624z"/>
	<path d="M671.1,52.8c-0.2-2.2-0.5-4-1.1-5.5c-0.5-1.5-1.3-2.7-2.2-3.6c-0.9-0.9-2-1.6-3.4-2c-1.3-0.4-2.8-0.6-4.5-0.6
		c-1.3,0-2.5,0.1-3.6,0.4c-1.1,0.2-2,0.6-2.8,1.1c-0.8,0.5-1.4,1.2-1.9,2c-0.4,0.8-0.7,1.8-0.7,3c0,1.2,0.2,2.1,0.6,2.9
		c0.4,0.7,1.1,1.4,2,2c0.9,0.6,2.2,1.1,3.6,1.7c1.5,0.5,3.3,1.2,5.4,1.9c1.7,0.6,3.4,1.2,5.1,1.9c1.7,0.7,3.2,1.5,4.5,2.5
		c1.3,1,2.4,2.2,3.3,3.6c0.8,1.4,1.2,3.1,1.2,5.1c0,2.3-0.5,4.3-1.5,6c-1,1.7-2.4,3.1-4.1,4.2s-3.6,1.9-5.8,2.4
		c-2.2,0.5-4.4,0.8-6.6,0.8c-1.2,0-2.5-0.1-3.8-0.2c-1.3-0.1-2.7-0.3-4-0.5c-1.3-0.2-2.6-0.5-3.7-0.8c-1.2-0.3-2.2-0.6-3.1-1
		L644,65.6h3.4c0.2,2.5,0.5,4.6,1.1,6.3c0.5,1.7,1.3,3.1,2.3,4.1c1,1,2.2,1.8,3.6,2.2c1.4,0.4,3.1,0.6,4.9,0.6c1.4,0,2.7-0.1,4-0.4
		c1.2-0.2,2.3-0.6,3.2-1.2c0.9-0.5,1.6-1.3,2.1-2.2c0.5-0.9,0.8-2,0.8-3.2c0-1.1-0.2-2-0.6-2.7c-0.4-0.7-1-1.3-1.9-1.9
		c-0.9-0.6-2-1.1-3.3-1.6c-1.4-0.5-3-1.1-4.9-1.7c-1.9-0.7-3.7-1.4-5.4-2.1c-1.7-0.7-3.3-1.6-4.6-2.6c-1.3-1-2.4-2.2-3.2-3.7
		c-0.8-1.4-1.2-3.2-1.2-5.2c0-2.3,0.5-4.2,1.4-5.8c0.9-1.6,2.2-3,3.7-4.1c1.5-1.1,3.3-1.8,5.3-2.3c2-0.5,4.1-0.7,6.2-0.7
		c1.1,0,2.2,0.1,3.4,0.2c1.2,0.1,2.4,0.3,3.6,0.5c1.2,0.2,2.3,0.4,3.4,0.7c1.1,0.2,2.1,0.5,3,0.7l0.3,13.4H671.1z"/>
	<path d="M724.1,67.4c-1.1,5-3.1,8.8-6.1,11.3c-3,2.6-6.9,3.8-11.7,3.8c-3.3,0-6.3-0.6-8.9-1.8c-2.6-1.2-4.9-2.8-6.7-4.8
		c-1.8-2-3.3-4.4-4.3-7.1c-1-2.7-1.5-5.5-1.5-8.6c0-3.1,0.5-6.1,1.6-8.9c1-2.8,2.5-5.2,4.4-7.3c1.9-2.1,4.2-3.7,6.9-4.9
		c2.7-1.2,5.7-1.8,9-1.8c2.4,0,4.5,0.3,6.5,0.9c2,0.6,3.7,1.4,5.1,2.5c1.4,1,2.5,2.2,3.3,3.6c0.8,1.4,1.2,2.8,1.2,4.3
		c0,1.1-0.2,1.9-0.5,2.7c-0.4,0.7-0.8,1.3-1.4,1.7c-0.5,0.4-1.2,0.7-1.8,0.9c-0.7,0.2-1.3,0.3-1.9,0.3c-1.6,0-2.9-0.5-3.9-1.5
		c-0.9-1-1.4-2.3-1.4-3.7c0-0.9,0.2-1.8,0.6-2.8c0.4-1,1.1-1.9,2-2.8c-1.1-0.9-2.4-1.5-3.9-1.8c-1.5-0.3-2.8-0.5-4.1-0.5
		c-1.6,0-3.1,0.2-4.5,0.6c-1.4,0.4-2.7,1.3-3.8,2.6c-1.1,1.3-2,3.3-2.7,5.7c-0.7,2.5-1,5.8-1,9.9c0,3.8,0.3,7,0.9,9.3
		c0.6,2.4,1.5,4.3,2.5,5.6c1.1,1.3,2.3,2.3,3.8,2.7c1.5,0.5,3,0.7,4.8,0.7c1.6,0,3-0.2,4.4-0.6c1.4-0.4,2.7-1.1,3.8-2.1
		c1.1-0.9,2.2-2.2,3-3.7c0.9-1.5,1.6-3.4,2.1-5.7c0.7,0.1,1.3,0.2,2,0.3C722.9,66.9,723.5,67.1,724.1,67.4z"/>
	<path d="M746,77.1h6.7v4h-23.1v-4h7.5V12.9h-7.5v-4H746v36.5h0.2c1.4-2.6,3.2-4.5,5.5-5.9c2.3-1.4,5.2-2.1,8.8-2.1
		c4.6,0,8,1.2,10.2,3.5c2.2,2.3,3.3,5.7,3.3,10v26.2h7.2v4h-22.9v-4h6.7V49.8c0-2.8-0.6-4.8-1.8-6c-1.2-1.2-3-1.9-5.3-1.9
		c-1.7,0-3.2,0.3-4.6,1c-1.4,0.7-2.7,1.7-3.8,3.1c-1.1,1.4-1.9,3.2-2.6,5.4c-0.6,2.2-0.9,4.8-0.9,7.9V77.1z"/>
	<path d="M787.6,60.3c0-3.1,0.5-6.1,1.5-8.9c1-2.8,2.4-5.2,4.3-7.3c1.9-2.1,4.2-3.7,6.9-4.9c2.7-1.2,5.8-1.8,9.3-1.8
		c3.4,0,6.5,0.6,9.1,1.8c2.7,1.2,4.9,2.8,6.7,4.8c1.8,2,3.1,4.4,4.1,7.1c0.9,2.7,1.4,5.5,1.4,8.6c0,3.1-0.5,6.1-1.5,8.9
		c-1,2.8-2.4,5.2-4.3,7.3c-1.9,2.1-4.2,3.7-6.9,4.9c-2.7,1.2-5.8,1.8-9.3,1.8c-3.4,0-6.5-0.6-9.1-1.8c-2.7-1.2-4.9-2.8-6.7-4.8
		c-1.8-2-3.1-4.4-4.1-7.1C788.1,66.2,787.6,63.4,787.6,60.3z M797.5,60.1c0,3.6,0.2,6.6,0.7,9c0.5,2.4,1.2,4.3,2.2,5.7
		c1,1.4,2.2,2.4,3.6,3c1.5,0.6,3.2,0.9,5.1,0.9c1.9,0,3.6-0.3,5.1-0.9c1.5-0.6,2.7-1.6,3.7-3.1c1-1.4,1.7-3.4,2.3-5.8
		c0.5-2.4,0.8-5.5,0.8-9.2c0-3.6-0.2-6.6-0.7-9c-0.5-2.4-1.2-4.3-2.2-5.7c-1-1.4-2.2-2.4-3.7-3c-1.5-0.6-3.2-0.9-5.1-0.9
		c-2,0-3.7,0.3-5.1,0.9c-1.5,0.6-2.7,1.6-3.7,3.1c-1,1.4-1.7,3.4-2.3,5.8C797.7,53.4,797.5,56.5,797.5,60.1z"/>
	<path d="M854,77.1h7.5v4h-23.9v-4h7.5V12.9h-7.5v-4H854V77.1z"/>
	<path d="M882.9,77.1h7.5v4h-23.9v-4h7.5V12.9h-7.5v-4h16.4V77.1z"/>
	<path d="M936.3,67.6c-1.1,4.8-3.1,8.5-6.2,11c-3,2.6-7,3.8-11.9,3.8c-3.3,0-6.3-0.6-8.9-1.8c-2.6-1.2-4.8-2.8-6.7-4.8
		c-1.8-2-3.2-4.4-4.2-7.1c-1-2.7-1.4-5.6-1.4-8.6c0-3.1,0.5-6.1,1.5-8.9c1-2.8,2.4-5.2,4.3-7.3c1.8-2.1,4-3.7,6.6-4.9
		c2.6-1.2,5.4-1.8,8.6-1.8c2.9,0,5.5,0.5,7.9,1.5c2.3,1,4.3,2.5,5.9,4.3c1.6,1.8,2.9,4,3.8,6.6c0.9,2.6,1.4,5.4,1.4,8.4h-30
		c0,0.6-0.1,0.9-0.1,1.1c0,0.2,0,0.3,0,0.3c0,3.9,0.3,7.1,0.9,9.5c0.6,2.5,1.4,4.4,2.4,5.7c1,1.4,2.3,2.3,3.7,2.8
		c1.4,0.5,3,0.7,4.8,0.7c1.6,0,3.2-0.2,4.6-0.6c1.4-0.4,2.7-1.1,3.9-2.1c1.2-0.9,2.2-2.2,3.1-3.7c0.9-1.5,1.6-3.3,2.1-5.4
		c0.7,0.1,1.3,0.2,2,0.3C935.1,67.2,935.7,67.4,936.3,67.6z M926.9,54.4c-0.1-2.8-0.4-5-0.9-6.7c-0.5-1.7-1.1-3-1.9-4
		c-0.8-1-1.7-1.6-2.8-2c-1.1-0.3-2.3-0.5-3.6-0.5c-1.4,0-2.6,0.2-3.8,0.6c-1.2,0.4-2.2,1.1-3.2,2.1c-0.9,1-1.7,2.3-2.3,4
		c-0.6,1.7-1,3.8-1.3,6.5H926.9z"/>
	<path d="M960.3,77.1h7.2v4h-23.6v-4h7.5V12.9h-7.5v-4h16.4V77.1z M962.5,58.1l15-15.3h-7.3v-4h22.6v4h-9.9L971.2,55l19.3,22.2h6.1
		v4h-24.1v-4h6.7L962.5,58.1z"/>
</g>
</svg>
